<svg width="68" height="68" viewBox="0 0 68 68" fill="none" xmlns="http://www.w3.org/2000/svg">
<g id="devicon:google">
<path id="Vector" d="M23.6884 2.23656C16.8942 4.59355 11.0348 9.0672 6.97102 15.0004C2.90721 20.9336 0.853143 28.0136 1.11054 35.2004C1.36793 42.3873 3.92322 49.3022 8.40107 54.9295C12.8789 60.5568 19.0433 64.5998 25.9887 66.4647C31.6196 67.9176 37.5191 67.9814 43.18 66.6506C48.3083 65.4987 53.0495 63.0348 56.9394 59.5C60.9879 55.7087 63.9266 50.8857 65.4394 45.5494C67.0837 39.7464 67.3763 33.6437 66.2947 27.71H34.6747V40.8266H52.9869C52.6209 42.9186 51.8366 44.9152 50.681 46.697C49.5254 48.4789 48.0221 50.0092 46.2613 51.1966C44.0251 52.6757 41.5044 53.671 38.8609 54.1184C36.2097 54.6114 33.4903 54.6114 30.8391 54.1184C28.1519 53.5629 25.61 52.4538 23.375 50.8619C19.7845 48.3203 17.0886 44.7096 15.6719 40.545C14.2312 36.3024 14.2312 31.7029 15.6719 27.4603C16.6803 24.4865 18.3474 21.7788 20.5487 19.5394C23.0679 16.9296 26.2572 15.0641 29.7668 14.1476C33.2763 13.2311 36.9705 13.2989 40.4441 14.3438C43.1575 15.1767 45.6389 16.632 47.6903 18.5938C49.7551 16.5396 51.8164 14.4801 53.8741 12.4153C54.9366 11.305 56.0947 10.2478 57.1413 9.11094C54.0099 6.19691 50.3342 3.92943 46.325 2.43844C39.0241 -0.212553 31.0355 -0.283795 23.6884 2.23656Z" fill="white"/>
<path id="Vector_2" d="M23.6884 2.23656C31.0349 -0.285509 39.0234 -0.216142 46.325 2.43313C50.3349 3.93425 54.0089 6.21264 57.1359 9.1375C56.0734 10.2744 54.9525 11.3369 53.8687 12.4419C51.8075 14.4996 49.748 16.5502 47.6903 18.5938C45.6389 16.632 43.1575 15.1767 40.4441 14.3438C36.9717 13.2953 33.2776 13.2235 29.7671 14.1363C26.2566 15.049 23.0653 16.9111 20.5434 19.5181C18.3421 21.7575 16.675 24.4652 15.6666 27.4391L4.65375 18.9125C8.59567 11.0955 15.4209 5.11607 23.6884 2.23656Z" fill="#E33629"/>
<path id="Vector_3" d="M1.73189 27.3594C2.32381 24.4258 3.30653 21.5848 4.65376 18.9125L15.6666 27.4603C14.2259 31.7029 14.2259 36.3024 15.6666 40.545C11.9974 43.3783 8.32647 46.2258 4.65376 49.0875C1.28112 42.3742 0.252528 34.7252 1.73189 27.3594Z" fill="#F8BD00"/>
<path id="Vector_4" d="M34.6747 27.7047H66.2947C67.3763 33.6384 67.0837 39.7411 65.4394 45.5441C63.9266 50.8804 60.9879 55.7034 56.9394 59.4947C53.3853 56.7216 49.8153 53.9697 46.2613 51.1966C48.0233 50.008 49.5272 48.476 50.6829 46.6923C51.8386 44.9085 52.6222 42.9098 52.9869 40.8159H34.6747C34.6694 36.4491 34.6747 32.0769 34.6747 27.7047Z" fill="#587DBD"/>
<path id="Vector_5" d="M4.64844 49.0875C8.32115 46.2542 11.9921 43.4067 15.6613 40.545C17.0808 44.711 19.7806 48.3219 23.375 50.8619C25.6169 52.4464 28.1644 53.5464 30.855 54.0919C33.5062 54.5848 36.2256 54.5848 38.8769 54.0919C41.5204 53.6444 44.0411 52.6492 46.2772 51.17C49.8312 53.9431 53.4012 56.695 56.9553 59.4681C53.066 63.0048 48.3247 65.4706 43.1959 66.6241C37.535 67.9549 31.6355 67.8911 26.0047 66.4381C21.5512 65.249 17.3914 63.1528 13.7859 60.2809C9.96976 57.2512 6.85289 53.433 4.64844 49.0875Z" fill="#319F43"/>
</g>
</svg>
