<svg width="36" height="36" viewBox="0 0 36 36" fill="none" xmlns="http://www.w3.org/2000/svg">
<g id="Group">
<path id="Vector" d="M1.5 5.16667C1.5 4.19421 1.88631 3.26158 2.57394 2.57394C3.26158 1.88631 4.19421 1.5 5.16667 1.5H30.8333C31.8058 1.5 32.7384 1.88631 33.4261 2.57394C34.1137 3.26158 34.5 4.19421 34.5 5.16667V30.8333C34.5 31.8058 34.1137 32.7384 33.4261 33.4261C32.7384 34.1137 31.8058 34.5 30.8333 34.5H5.16667C4.19421 34.5 3.26158 34.1137 2.57394 33.4261C1.88631 32.7384 1.5 31.8058 1.5 30.8333V5.16667Z" stroke="black" stroke-width="3" stroke-linecap="round" stroke-linejoin="round"/>
<path id="Vector_2" d="M11.5833 12.5C12.0896 12.5 12.5 12.0896 12.5 11.5833C12.5 11.0771 12.0896 10.6667 11.5833 10.6667C11.0771 10.6667 10.6667 11.0771 10.6667 11.5833C10.6667 12.0896 11.0771 12.5 11.5833 12.5Z" fill="black" stroke="black" stroke-width="3" stroke-linecap="round" stroke-linejoin="round"/>
<path id="Vector_3" d="M24.4167 12.5C24.9229 12.5 25.3333 12.0896 25.3333 11.5833C25.3333 11.0771 24.9229 10.6667 24.4167 10.6667C23.9104 10.6667 23.5 11.0771 23.5 11.5833C23.5 12.0896 23.9104 12.5 24.4167 12.5Z" fill="black" stroke="black" stroke-width="3" stroke-linecap="round" stroke-linejoin="round"/>
<path id="Vector_4" d="M24.4167 25.3333C24.9229 25.3333 25.3333 24.9229 25.3333 24.4167C25.3333 23.9104 24.9229 23.5 24.4167 23.5C23.9104 23.5 23.5 23.9104 23.5 24.4167C23.5 24.9229 23.9104 25.3333 24.4167 25.3333Z" fill="black" stroke="black" stroke-width="3" stroke-linecap="round" stroke-linejoin="round"/>
<path id="Vector_5" d="M11.5833 25.3333C12.0896 25.3333 12.5 24.9229 12.5 24.4167C12.5 23.9104 12.0896 23.5 11.5833 23.5C11.0771 23.5 10.6667 23.9104 10.6667 24.4167C10.6667 24.9229 11.0771 25.3333 11.5833 25.3333Z" fill="black" stroke="black" stroke-width="3" stroke-linecap="round" stroke-linejoin="round"/>
</g>
</svg>
