<svg width="14" height="13" viewBox="0 0 14 13" fill="none" xmlns="http://www.w3.org/2000/svg">
<path id="Vector" d="M1.05 10.9474C1.32848 10.9474 1.59555 11.0555 1.79246 11.248C1.98938 11.4404 2.1 11.7015 2.1 11.9737C2.1 12.2459 1.98938 12.5069 1.79246 12.6994C1.59555 12.8919 1.32848 13 1.05 13C0.771523 13 0.504451 12.8919 0.307538 12.6994C0.110625 12.5069 0 12.2459 0 11.9737C0 11.7015 0.110625 11.4404 0.307538 11.248C0.504451 11.0555 0.771523 10.9474 1.05 10.9474ZM4.55 8.89474C5.01413 8.89474 5.45925 9.07495 5.78744 9.39574C6.11563 9.71652 6.3 10.1516 6.3 10.6053C6.3 11.0589 6.11563 11.494 5.78744 11.8148C5.45925 12.1356 5.01413 12.3158 4.55 12.3158C4.08587 12.3158 3.64075 12.1356 3.31256 11.8148C2.98437 11.494 2.8 11.0589 2.8 10.6053C2.8 10.1516 2.98437 9.71652 3.31256 9.39574C3.64075 9.07495 4.08587 8.89474 4.55 8.89474ZM8.75 8.21053C7.917 8.21053 7.161 7.86842 6.65 7.28684C6.139 7.86842 5.383 8.21053 4.55 8.21053C3.178 8.21053 2.037 7.24579 1.799 5.98C1.27036 5.78017 0.815776 5.42896 0.494777 4.97237C0.173777 4.51577 0.00132405 3.97506 0 3.42105C0 2.6952 0.294999 1.99907 0.820101 1.48581C1.3452 0.972555 2.05739 0.684211 2.8 0.684211C2.982 0.684211 3.15 0.704737 3.339 0.732105C3.85 0.280526 4.515 0 5.25 0C6.083 0 6.839 0.342105 7.35 0.923684C7.861 0.342105 8.617 0 9.45 0C10.822 0 11.963 0.964737 12.201 2.23053C12.7296 2.43035 13.1842 2.78156 13.5052 3.23816C13.8262 3.69476 13.9987 4.23547 14 4.78947C14 5.51533 13.705 6.21146 13.1799 6.72471C12.6548 7.23797 11.9426 7.52632 11.2 7.52632L10.661 7.47842C10.15 7.93 9.485 8.21053 8.75 8.21053Z" fill="#FBCE18"/>
</svg>
